<?xml version="1.0" encoding="UTF-8"?>
<svg xmlns="http://www.w3.org/2000/svg" width="139.546" height="180.783" viewBox="0 0 139.546 180.783">
  <g transform="translate(-909.645 -8132.613)">
    <path d="M100.016,158.508S91.5,195.84,91.5,195.9c.058.408,12.774-.7,14.058-.817,27.765-3.092,52.5-24.266,64.164-49a76.922,76.922,0,0,0,6.183-19.307c1.692-9.566,2.683-21.232-1.925-30.1C168.322,85.77,158.289,77.662,153.389,66.4c-3.033-6.941-3.558-15.224,4.783-18.316,1.05-.408,6.941-2.217,7.7-1.342a16.781,16.781,0,0,0-6.183-3.85c-1.983-.525-2.858-2.275-4.433-3.325-4.841-3.208-12.249.117-15.983,3.558-5.25,4.783-6.65,11.258-4.725,17.966,1.867,6.358,5.95,11.9,10.091,16.974,10.383,12.891,16.274,29.224,11.374,45.673,0,.058-.058.175-.058.233a51.85,51.85,0,0,1-11.141,19.541c-7.991,8.75-19.249,12.658-30.74,14.174C112.732,157.75,100.075,158.275,100.016,158.508Z" transform="translate(871.873 8117.408)" fill="#fff"></path>
    <path d="M124.183,147.774c0,6.125,0,11.374-.292,14.174-.233,1.925-.525,3.383-1.75,3.675a9.23,9.23,0,0,1-2.217.292c-.758,0-.992.175-.992.525,0,.467.408.642,1.225.642,2.45,0,6.3-.175,7.466-.175.933,0,5.425.175,8.983.175.817,0,1.225-.175,1.225-.642,0-.35-.233-.525-.758-.525a25.662,25.662,0,0,1-2.975-.292c-1.867-.292-2.217-1.75-2.392-3.675-.292-2.8-.292-8.05-.292-14.233v-.933c0-.408.175-.525.467-.525l5.133.117a1.221,1.221,0,0,1,1.108.467c.817.992,3.617,5.541,6.066,9.216,3.442,5.133,5.775,8.283,8.4,9.8,1.575.933,3.15,1.283,6.533,1.283h6.008c.758,0,1.167-.117,1.167-.642,0-.35-.233-.525-.758-.525a7.92,7.92,0,0,1-1.692-.175c-.933-.175-3.383-.642-6.825-4.55-3.617-4.141-7.816-10.15-13.3-17.616,6.183-5.483,8.05-9.916,8.05-14.874a11.756,11.756,0,0,0-4.141-9.1c-3.325-2.45-7.408-2.858-11.258-2.858-1.925,0-6.533.175-8.633.175-1.283,0-5.133-.175-8.4-.175-.933,0-1.342.117-1.342.583s.35.583,1.05.583a16.5,16.5,0,0,1,2.392.175c2.042.467,2.508,1.517,2.625,3.792.117,2.158.117,4.025.117,14.116v11.724Zm7.233-26.715c0-.525.117-.817.525-.933a12.179,12.179,0,0,1,3.267-.292c3.616,0,9.391,2.742,9.391,12.191,0,5.483-1.75,8.516-3.617,9.975-1.108.875-1.925,1.108-4.375,1.108a15.816,15.816,0,0,1-4.666-.642c-.408-.175-.525-.467-.525-1.225Z" transform="translate(860.83 8084.687)" fill="#fff"></path>
    <g transform="translate(910 8133.356)">
      <path d="M54.85,219.64,44.7,239.3s40.423,15.224,78.688-9.858a92.029,92.029,0,0,0,32.724-41.24C156.112,188.258,132.488,246.181,54.85,219.64Z" transform="translate(-18.626 -78.422)" fill="#fff"></path>
      <path d="M155.879,188.109l.483.09a.317.317,0,0,1-.033.133,87.22,87.22,0,0,1-9.619,17.993,95.892,95.892,0,0,1-10.774,12.918,80.164,80.164,0,0,1-12.415,10.408,87.483,87.483,0,0,1-25.835,11.5,92.978,92.978,0,0,1-23.546,2.977,100.41,100.41,0,0,1-21.256-2.294,67.038,67.038,0,0,1-8.273-2.3l-.263-.1,10.377-20.1.2.07c13.482,4.609,26.233,6.946,37.9,6.946,19.133,0,36-6.428,48.79-18.589a68.166,68.166,0,0,0,10.72-13.073,46.365,46.365,0,0,0,3.526-6.54ZM74.14,243.625a88.035,88.035,0,0,0,49.111-14.394,79.68,79.68,0,0,0,12.341-10.351,93.172,93.172,0,0,0,17.6-24.623q-.209.341-.433.7a68.665,68.665,0,0,1-10.8,13.169,66.4,66.4,0,0,1-19.5,12.908,74.346,74.346,0,0,1-29.638,5.818,101.8,101.8,0,0,1-17.7-1.628,137.531,137.531,0,0,1-20.156-5.275l-9.92,19.213A70.689,70.689,0,0,0,53,241.345,99.907,99.907,0,0,0,74.14,243.625Z" transform="translate(-18.626 -78.422)" fill="#2e3094"></path>
      <path d="M30.174,203l-2.45.933L12.5,217s29.165,25.432,64.747,19.891c0,0,36.282-1.983,55.939-27.824C133.186,209.066,94.28,248.031,30.174,203Z" transform="translate(-5.209 -84.589)" fill="#fff"></path>
      <path d="M30.209,202.719l.109.076C50.79,217.176,70.8,224.468,89.793,224.468a68.334,68.334,0,0,0,31.977-7.79,51.192,51.192,0,0,0,11.239-7.788l.376.328a62.937,62.937,0,0,1-17.1,15.31,83.814,83.814,0,0,1-18.362,8.379,91.752,91.752,0,0,1-20.648,4.233,67.262,67.262,0,0,1-10.306.791,76.015,76.015,0,0,1-21.554-3.242,94.717,94.717,0,0,1-17.328-7.128,91.48,91.48,0,0,1-15.75-10.373l-.218-.19,15.477-13.283Zm59.584,22.248c-19.064,0-39.134-7.3-59.654-21.687l-2.285.871L12.885,217a93.2,93.2,0,0,0,15.447,10.127c8.889,4.7,22.808,10.3,38.636,10.3a66.763,66.763,0,0,0,10.241-.787l.025,0a91.021,91.021,0,0,0,20.548-4.214c9.886-3.2,23.453-9.457,33.448-21.317A58.173,58.173,0,0,1,122,217.12a66.785,66.785,0,0,1-13.663,5.4A70.412,70.412,0,0,1,89.793,224.968Z" transform="translate(-5.209 -84.589)" fill="#2e3094"></path>
      <path d="M21.232,155.7,0,164.333s34.707,62.589,107.212,36.923C107.212,201.315,54.131,217.414,21.232,155.7Z" transform="translate(0 -64.879)" fill="#fff"></path>
      <path d="M21.347,155.384l.106.2c21.966,41.206,53.24,47.358,69.928,47.358a58.535,58.535,0,0,0,15.7-1.9l.383-.136v.354a.248.248,0,0,1-.167.235h0l-.013,0-.045.016a112.108,112.108,0,0,1-17.693,4.722,92.36,92.36,0,0,1-16.075,1.451,80.37,80.37,0,0,1-32.491-6.756,88.262,88.262,0,0,1-23-14.858A100.215,100.215,0,0,1,4.309,171.217a67.679,67.679,0,0,1-4.528-6.763l-.137-.247Zm70.034,48.057a71.839,71.839,0,0,1-15.685-1.73,70.757,70.757,0,0,1-18.261-6.855c-14.52-7.875-26.738-20.941-36.317-38.839L.359,164.457a71.513,71.513,0,0,0,4.361,6.475,99.713,99.713,0,0,0,13.607,14.777c11.071,9.8,29.625,21.476,55.143,21.476a98.525,98.525,0,0,0,29.087-4.648A67.917,67.917,0,0,1,91.381,203.441Z" transform="translate(0 -64.879)" fill="#2e3094"></path>
      <path d="M28.907,112.5H6.8c-.058,0,2.1,10.033,2.275,10.616a94.16,94.16,0,0,0,10.15,23.624c8.4,13.824,20.591,24.032,35.232,30.8a90.588,90.588,0,0,0,33.307,8.691c6.416.292,11.316-.7,17.616-1.925C105.32,184.305,50.372,195.446,28.907,112.5Z" transform="translate(-2.833 -46.878)" fill="#fff"></path>
      <path d="M6.8,112.25H29.1l.048.187c16.845,65.09,54.319,72.117,69.648,72.117a37.917,37.917,0,0,0,6.514-.491.322.322,0,0,1,.067-.008l.048.5-.455.089c-5.433,1.057-9.725,1.892-14.969,1.892-.74,0-1.5-.017-2.251-.052a90.4,90.4,0,0,1-33.4-8.714,85.133,85.133,0,0,1-20.015-12.79A76.267,76.267,0,0,1,19.01,146.87,94.513,94.513,0,0,1,8.833,123.184c-.093-.31-.7-3.079-1.224-5.519-.291-1.354-.555-2.6-.744-3.512-.1-.5-.182-.885-.235-1.156-.1-.527-.107-.547-.033-.647l.075-.1Zm21.914.5H7.092c.3,1.6,2.061,9.758,2.222,10.294A94.025,94.025,0,0,0,19.437,146.61c8.112,13.35,19.929,23.68,35.123,30.7a89.908,89.908,0,0,0,33.215,8.669c.745.034,1.495.051,2.227.051a56.817,56.817,0,0,0,10.16-1q-.649.018-1.366.018C83.366,185.055,45.669,178,28.713,112.75Z" transform="translate(-2.833 -46.878)" fill="#2e3094"></path>
      <path d="M56.08,71.775s-18.724-8.4-24.266-9.275c0,0-11.025,45.09,26.307,78.922,0,0,11.141,14.524,38.615,21.174C96.736,162.6,44.53,151.163,56.08,71.775Z" transform="translate(-12.623 -26.043)" fill="#fff"></path>
      <path d="M31.626,62.217l.227.036c5.511.87,23.563,8.95,24.329,9.293l.172.077-.027.187c-4.6,31.636.23,56.255,14.364,73.174,10.8,12.928,23.376,16.672,25.791,17.292l.313.076-.112.487s-.115-.025-.322-.078a93.592,93.592,0,0,1-17.523-6.133,75.547,75.547,0,0,1-11.928-6.962,46.722,46.722,0,0,1-8.972-8.074A83.009,83.009,0,0,1,30.72,89.3a90.241,90.241,0,0,1-.294-19.254,59.312,59.312,0,0,1,1.145-7.61Zm24.179,9.709c-1.873-.834-18.382-8.149-23.8-9.14a62.365,62.365,0,0,0-1.083,7.33,89.742,89.742,0,0,0,.3,19.147,83.038,83.038,0,0,0,27.07,51.973l.017.015.014.018a45.8,45.8,0,0,0,8.9,8.006A81.492,81.492,0,0,0,90.152,160.5c-1.084-.489-2.268-1.068-3.524-1.753a55.723,55.723,0,0,1-7.929-5.253,57.526,57.526,0,0,1-8.392-8.189,67.266,67.266,0,0,1-13.424-27.483A99.48,99.48,0,0,1,54.222,97.39,147.047,147.047,0,0,1,55.805,71.926Z" transform="translate(-12.623 -26.043)" fill="#2e3094"></path>
      <path d="M65.79,20.8S87.956,35.616,84.864,47.749s-20.649,55.939-.992,84c0,0-22.924-16.333-29.982-56.231C53.949,75.514,50.508,43.374,65.79,20.8Z" transform="translate(-22.334 -8.667)" fill="#fff"></path>
      <path d="M65.723,20.454l.207.138a78.61,78.61,0,0,1,10.735,8.957A38.807,38.807,0,0,1,83.409,38.3c1.847,3.48,2.419,6.679,1.7,9.508-.4,1.567-1.051,3.7-1.806,6.17-5.284,17.293-16.281,53.276.777,77.622l-.35.347a37.919,37.919,0,0,1-3.72-3.2,74.951,74.951,0,0,1-8.682-10.012,93.93,93.93,0,0,1-10-17.506,112.465,112.465,0,0,1-7.68-25.675l-.052-.294h.032v-.019a111.511,111.511,0,0,1,.454-20.478,93.5,93.5,0,0,1,3.487-17A64.556,64.556,0,0,1,65.583,20.66ZM82.764,130.547a51.1,51.1,0,0,1-7.22-18.843,81.569,81.569,0,0,1-.7-21.7C76.14,75.7,80.162,62.542,82.823,53.834c.753-2.463,1.4-4.591,1.8-6.147.689-2.7.133-5.782-1.653-9.147a38.3,38.3,0,0,0-6.655-8.634,78.542,78.542,0,0,0-10.457-8.757c-13.2,19.7-12.323,46.341-11.736,54.059.01.129.016.216.018.277,3.639,20.555,11.574,34.708,17.591,42.96A68.763,68.763,0,0,0,82.764,130.547Z" transform="translate(-22.334 -8.667)" fill="#2e3094"></path>
      <path d="M105.271,0c0,.058-4.141,4.2-4.316,4.433A129.8,129.8,0,0,0,91.1,16.566C81.472,29.982,74.939,44.74,74.472,61.422a98.791,98.791,0,0,0,6.008,37.04,155.2,155.2,0,0,0,9.333,19.949c-3.15-5.775-4.666-12.541-5.366-19.016a46.38,46.38,0,0,1,1.692-18.549A47.9,47.9,0,0,1,96.229,63.756c4.491-5.133,9.683-9.508,13.3-15.4a43.673,43.673,0,0,0,5.483-13.824C117.345,22.107,112.8,9.916,105.271,0Z" transform="translate(-31.015)" fill="#fff"></path>
      <path d="M105.021-.743l.449.592a52.825,52.825,0,0,1,8.607,16.4,38.1,38.1,0,0,1,1.181,18.326,43.788,43.788,0,0,1-5.515,13.907,63.912,63.912,0,0,1-8.877,10.67c-1.482,1.536-3.014,3.125-4.448,4.765-4.988,5.72-8.273,11.281-10.041,17A46.014,46.014,0,0,0,84.7,99.37c.8,7.436,2.554,13.718,5.2,18.671l.135.25h0l-.439.239-.137-.254a156.859,156.859,0,0,1-9.211-19.728,99.261,99.261,0,0,1-6.023-37.134c.426-15.234,5.879-29.952,16.671-45a129,129,0,0,1,9.872-12.15c.123-.15.811-.85,2.2-2.26.859-.871,1.823-1.848,2.054-2.1ZM86.913,112.35q-.536-1.576-.981-3.261A65.82,65.82,0,0,1,84.2,99.423a46.512,46.512,0,0,1,1.7-18.65c1.789-5.787,5.106-11.407,10.142-17.181,1.443-1.649,2.979-3.242,4.465-4.783a63.532,63.532,0,0,0,8.81-10.583,43.282,43.282,0,0,0,5.451-13.743c2.077-11.059-1.3-23.157-9.513-34.09-.107.112-.257.265-.466.48-.4.408-.941.957-1.465,1.489-.924.937-2.074,2.1-2.169,2.223l-.016.019A128.491,128.491,0,0,0,91.3,16.712C80.568,31.671,75.145,46.3,74.722,61.429a98.757,98.757,0,0,0,5.992,36.946A135.017,135.017,0,0,0,86.913,112.35Z" transform="translate(-31.015)" fill="#2e3094"></path>
    </g>
  </g>
</svg>
